<svg xmlns="http://www.w3.org/2000/svg" viewBox="0 0 512 512">
  <path d="M318.24805.00195313c-6.19363-.09305274-12.46719 2.16256247-17.25782 7.22656247L256 53.570312 211.01172 7.2285156c-12.63-13.351-36.04817-7.23403122-40.32617 10.6679684l-15.98438 62.671875-61.994139-17.667968c-17.837-4.994-34.650156 11.837875-29.660156 29.671875l17.660156 62.015624-62.65039 15.98828c-17.98800037 4.301-24.3660629 27.36689-10.6640629 40.33789l45.9843749 45.00586-45.9843749 45.00391c-13.708 12.977-7.31593748 36.03984 10.6640629 40.33984l62.648437 15.99024-17.660156 62.01367c-4.991 17.838 11.828156 34.66387 29.660156 29.67187l61.994142-17.66797 15.98437 62.67188c4.439 18.575 27.69718 24.01797 40.32618 10.66797L256 458.60938l44.98828 46.00195c12.5 13.488 35.98817 7.48603 40.32617-10.66797l15.98438-62.67188 61.99414 17.66797c17.836 4.994 34.65016-11.83787 29.66015-29.67187l-17.66015-62.01367 62.64844-15.99024c17.987-4.302 24.36606-27.36784 10.66406-40.33984l-45.98438-45.00391 45.98633-45.00586c13.708-12.977 7.31594-36.03789-10.66406-40.33789l-62.65039-15.99023 17.66015-62.015628c4.991-17.838-11.82815-34.661921-29.66015-29.669921l-61.99414 17.666015-15.98438-62.669922C338.6707 6.8346094 328.57075.15704102 318.24805.00195312zM274.66016 170.69922c7.99688 0 23.99023 2.66618 23.99023 27.14062 0 14.13314-8.65317 22.06093-11.08789 31.50391h33.89453c11.12799 0 19.78982 9.24599 19.8418 19.35937.028 5.977-2.51378 12.41147-6.47656 16.39258l-.03711.03516c3.27738 7.77596 2.74448 18.67286-3.10157 26.48047 2.89254 8.6283-.02149 19.22608-5.45703 24.9082 1.43211 5.86371.74741 10.85366-2.04883 14.87109-6.80063 9.77081-23.65671 9.91016-37.91015 9.91016l-.94727-.00195c-16.08939-.006-29.25736-5.86315-39.83789-10.57031-5.31693-2.36541-12.26836-5.29367-17.54297-5.39063-2.17915-.04-3.92773-1.81857-3.92773-3.99805v-71.22851c0-1.06625.42718-2.09014 1.18555-2.83985 13.19951-13.0429 18.87653-26.8504 29.69531-37.6875 4.93274-4.94207 6.72661-12.40777 8.46094-19.62695 1.48175-6.16459 4.5816-19.25781 11.30664-19.25781zm-95.96289 74.63867h26.65625c4.41662 0 7.99609 3.57949 7.99609 7.99609v79.96875c0 4.41661-3.57947 7.99805-7.99609 7.99805h-26.65625c-4.41661 0-7.99805-3.58144-7.99805-7.99805v-79.96875c0-4.4166 3.58144-7.99609 7.99805-7.99609zm13.32812 66.64063c-4.41661 0-7.99805 3.57948-7.99805 7.99609 0 4.41661 3.58144 7.99805 7.99805 7.99805s7.99609-3.58144 7.99609-7.99805-3.57948-7.99609-7.99609-7.99609z"/>
</svg>
