<?xml version="1.0" encoding="UTF-8" standalone="no"?>
<svg xmlns="http://www.w3.org/2000/svg" width="512" height="512" viewBox="0 0 512 512">
  <path d="M273 20c-11 0-21 9-23 21l-9 88h-8L39 163c-12 2-21 15-19 27l50 283c2 12 15 21 27 19l194-34c12-3 21-15 18-27l-13-73 140 14c13 2 25-8 26-20l30-286c1-13-8-24-21-25L276 20h-3zm0 16h1l196 21c4 0 6 3 6 7l-30 286c0 4-4 7-8 6l-144-15-35-193-3-9 10-97c1-3 4-6 7-6zm47 106l-10 99 39 4c15 2 25 0 32-8 9-8 15-21 16-37 2-15-1-29-8-39-6-9-15-13-30-15zm19 20l18 1c16 2 22 14 20 35-3 22-11 32-27 31l-18-2zm-135 91l17 98-20 4-13-77-4 80-20 3-32-73 14 76-20 4-18-98 31-6 31 75 4-81z" />
</svg>
