<?xml version="1.0" encoding="UTF-8" standalone="no"?>
<svg xmlns="http://www.w3.org/2000/svg" width="512" height="512" viewBox="0 0 512 512">
  <path d="M258 16c-62 0-124 24-171 71-95 94-94 246 0 339 95 93 250 93 345 0l12-12-15-14-12 12-10-10c-82 80-213 80-295 0-82-81-82-210-1-291 81-80 212-81 294-3l-38 35 129 25-1-3-26-117-39 36c-48-46-110-68-172-68zm-79 159c-46 1-70 10-70 10v133s24-9 70-9c50 0 70 20 70 20V196s-20-21-70-21zm160 0c-50 0-70 21-70 21v133s20-20 70-20c46 0 70 9 70 9V185s-24-9-70-10zM179 323c-46 1-70 10-70 10v16s24-9 70-9c50 0 81 31 81 31s30-31 80-31c46 0 70 9 70 9v-16s-24-9-70-10c-50 0-80 32-80 32s-31-32-81-32z"/>
</svg>
