<?xml version="1.0" standalone="no"?>
<!DOCTYPE svg PUBLIC "-//W3C//DTD SVG 20010904//EN"
 "http://www.w3.org/TR/2001/REC-SVG-20010904/DTD/svg10.dtd">
<svg version="1.0" xmlns="http://www.w3.org/2000/svg"
 width="700.000000pt" height="700.000000pt" viewBox="0 0 700.000000 700.000000"
 preserveAspectRatio="xMidYMid meet">
<metadata>
Created by potrace 1.11, written by Peter Selinger 2001-2013
</metadata>
<g transform="translate(0.000000,700.000000) scale(0.100000,-0.100000)"
fill="#000000" stroke="none">
<path d="M3905 6988 c-75 -14 -186 -72 -250 -129 -121 -111 -165 -214 -190
-444 -3 -27 -7 -72 -10 -100 -3 -27 -8 -66 -10 -85 -3 -19 -7 -62 -10 -95 -4
-33 -8 -76 -10 -95 -5 -34 -9 -69 -20 -180 -3 -30 -8 -66 -10 -80 -2 -14 -7
-56 -10 -95 -2 -38 -7 -81 -9 -95 -3 -14 -8 -56 -11 -95 -4 -38 -8 -72 -10
-75 -1 -3 -6 -43 -10 -90 -4 -47 -8 -96 -10 -110 -2 -14 -3 -34 -4 -45 -1 -19
-3 -18 -24 5 -32 36 -84 72 -147 102 -149 71 -243 71 -535 -1 -115 -28 -226
-56 -245 -61 -41 -12 -409 -103 -525 -130 -44 -10 -199 -48 -345 -85 -290 -73
-290 -73 -322 -80 -13 -3 -106 -26 -208 -51 -102 -26 -189 -47 -195 -48 -5 -1
-19 -5 -30 -9 -11 -3 -31 -8 -45 -11 -62 -12 -281 -69 -340 -88 -174 -57 -312
-209 -354 -389 -14 -59 -14 -175 -1 -244 7 -37 32 -138 45 -185 5 -19 46 -181
89 -360 44 -179 144 -581 221 -895 78 -313 143 -577 145 -585 2 -8 36 -145 75
-305 40 -159 73 -298 75 -308 3 -10 7 -27 10 -37 3 -10 8 -27 10 -37 2 -10 47
-191 100 -403 53 -212 100 -403 105 -425 42 -194 88 -293 179 -384 71 -71 153
-118 253 -144 85 -22 201 -15 353 23 72 17 137 33 145 35 8 2 105 26 215 54
110 27 313 77 450 110 138 34 266 65 285 71 57 15 77 21 97 25 10 2 101 24
203 50 102 25 192 48 200 50 8 1 33 8 55 13 22 6 51 13 65 16 14 3 160 39 324
80 357 89 413 113 512 219 131 142 171 298 131 507 -7 35 -196 802 -202 818
-4 10 5 12 38 8 23 -3 63 -8 90 -11 86 -9 142 -16 177 -20 19 -3 67 -7 105
-11 39 -3 81 -7 95 -9 26 -4 92 -11 183 -20 28 -3 68 -8 87 -10 19 -2 60 -7
90 -10 30 -3 71 -8 90 -10 19 -2 64 -7 100 -11 36 -3 72 -8 80 -9 8 -1 51 -6
94 -10 43 -4 87 -8 97 -10 10 -2 44 -6 76 -9 114 -12 159 -17 193 -21 37 -5
111 -13 225 -24 66 -6 136 -1 214 13 47 9 160 70 211 113 81 69 156 197 174
293 3 19 8 44 10 55 2 11 7 47 10 80 14 128 17 151 21 190 6 56 15 135 20 170
2 17 7 66 11 110 3 44 7 87 9 95 2 8 6 44 10 80 3 36 8 81 11 100 2 19 6 60 9
90 3 30 8 71 11 90 2 19 7 58 9 85 5 47 9 80 20 180 5 44 23 212 31 290 2 28
7 61 9 75 4 24 9 74 20 190 3 30 7 66 10 80 2 14 7 58 10 98 4 41 8 81 10 90
1 9 6 53 10 96 4 43 8 86 10 95 1 9 6 45 9 81 4 36 9 81 11 100 6 42 12 92 20
180 3 36 8 83 11 105 4 22 8 58 9 80 4 49 16 155 20 175 2 8 6 49 9 90 4 41 9
86 11 100 3 14 7 54 11 90 3 36 7 79 10 95 2 17 6 62 9 100 4 39 8 77 10 85
10 37 20 173 19 260 -3 291 -206 499 -524 534 -25 3 -72 8 -105 11 -33 4 -71
8 -85 10 -14 2 -56 7 -95 11 -38 3 -77 8 -86 9 -9 2 -52 6 -95 10 -43 4 -87 9
-97 11 -10 2 -53 6 -95 9 -42 4 -79 8 -82 10 -3 2 -43 6 -89 10 -47 4 -92 8
-101 10 -14 3 -61 8 -180 21 -25 2 -61 6 -80 9 -19 2 -62 7 -94 10 -33 3 -73
8 -90 10 -17 2 -58 7 -91 10 -33 3 -96 10 -140 15 -44 5 -105 12 -135 15 -30
3 -68 7 -85 9 -16 2 -61 7 -100 11 -38 4 -77 8 -85 10 -8 1 -46 6 -85 9 -38 4
-86 9 -105 11 -155 20 -298 26 -365 13z"/>
</g>
</svg>
