<svg xmlns="http://www.w3.org/2000/svg" width="512" height="200" viewBox="0 0 135 52.9">
  <defs/>
  <defs>
    <linearGradient id="a">
      <stop stop-color="#f69c30"/>
    </linearGradient>
    <linearGradient id="b">
      <stop stop-color="#30b4f6"/>
    </linearGradient>
  </defs>
  <path fill="url(#a)" d="M9.31 31.4v9.26l3.31-1.32 3.3 1.32V31.4z" paint-order="stroke fill markers" transform="matrix(3.67 0 0 3.67 -31.5 -96.5)"/>
  <path stroke-width=".26" d="M14.74 35.99H12.6v5.28q-.65.12-1.56.12t-1.56-.12V25.45l.16-.14 3.15-.07 1.95-.02q2.52 0 4 1.38 1.52 1.37 1.52 4 0 1.3-.4 2.3t-1.12 1.68T17 35.63q-1 .35-2.26.35zm-2.14-8.33v5.94l1.54-.02q.65 0 1.09-.07.47-.1.77-.3.33-.24.58-.68.24-.4.35-.88.12-.52.12-1.03 0-.53-.12-1.05-.11-.53-.4-.95t-.74-.68-1.16-.25h-1.2q-.48 0-.83-.03z" aria-label="P"/>
  <path fill="url(#b)" d="M16.5 31.4v9.26l3.3-1.32 3.31 1.32V31.4z" paint-order="stroke fill markers" transform="matrix(3.67 0 0 3.67 -31.5 -96.5)"/>
  <path stroke-width=".26" d="M43.73 37.82l-1.14.03h-3.26l-1.14-.03-1.1 3.64q-.48.12-1.4.12-.88 0-1.44-.21l-.11-.17 5.2-15.67q.87-.11 1.87-.11t1.75.14l5.1 15.67q-.68.4-1.63.4-.93 0-1.35-.36-.4-.35-.68-1.33zm-4.77-2.47l1.05-.02h2l.99.02-.7-2.38q-.8-2.65-1.26-4.51h-.14q-.2 1-1.02 3.93z" aria-label="A"/>
  <path fill="url(#a)" d="M23.7 31.4v9.26l3.3-1.32 3.32 1.32V31.4z" paint-order="stroke fill markers" transform="matrix(3.67 0 0 3.67 -31.5 -96.5)"/>
  <path stroke-width=".26" d="M72.73 30.11q0 .78-.24 1.47-.2.68-.6 1.24-.4.54-.93.95-.52.4-1.14.61.6.2 1 .72.42.52.72 1.33l.86 2.35q.21.59.47 1t.63.7q-.3.42-.89.68-.56.25-1.28.25-.7 0-1.12-.41t-.77-1.42l-.98-2.78q-.3-.81-.77-1.24-.47-.44-1.4-.44h-1.42v6.1q-.32.04-.72.06-.4.05-.86.05-.87 0-1.52-.12V25.4l.16-.14 3.2-.07 2.12-.02q2.52 0 4 1.26 1.49 1.26 1.49 3.66zm-7.86-2.53v5.13q1.22-.07 2.15-.07 2.49 0 2.49-2.51T67 27.6h-1.25q-.52 0-.89-.03z" aria-label="R"/>
  <path fill="url(#b)" d="M30.9 31.4v9.26l3.3-1.32 3.31 1.32V31.4z" paint-order="stroke fill markers" transform="matrix(3.67 0 0 3.67 -31.5 -96.5)"/>
  <path stroke-width=".26" d="M95.48 27.91l.03 1.73v11.6q-.68.11-1.59.11-.88 0-1.56-.11v-11.6l.02-1.73-1.42.03h-2.58q-.12-.59-.12-1.31t.12-1.3h11.15q.17.58.17 1.27 0 .68-.4 1t-1.28.33h-1.1l-1.42-.02z" aria-label="T"/>
  <path fill="url(#a)" d="M38.1 31.4v9.26l3.3-1.32 3.32 1.32V31.4z" paint-order="stroke fill markers" transform="matrix(3.67 0 0 3.67 -31.5 -96.5)"/>
  <path stroke-width=".26" d="M121.9 30.11l1.85-4.62q.53-.12 1.35-.12t1.47.21l.11.19-4.47 10.68v4.95q-.6.12-1.56.12t-1.56-.12v-5.06l-4.48-10.5q.98-.55 1.77-.55t1.17.3.65 1l1.47 3.59q.6 1.59 1 3.12h.14q.38-1.35 1.1-3.21z" aria-label="Y"/>
</svg>
